HIERARCHY
ROOT Hips
{
  OFFSET 0.000000 0.000000 0.000000
  CHANNELS 6 Xposition Yposition Zposition Xrotation Yrotation Zrotation
  JOINT Spine
  {
    OFFSET 1.388230 22.849755 -8.157144
    CHANNELS 3 Xrotation Yrotation Zrotation
    JOINT Chest
    {
      OFFSET 1.388230 22.849755 -8.157144
      CHANNELS 3 Xrotation Yrotation Zrotation
      JOINT Neck
      {
        OFFSET 0.386562 8.498444 -3.690407
        CHANNELS 3 Xrotation Yrotation Zrotation
        JOINT Head
        {
          OFFSET 0.662911 7.396516 -7.447500
          CHANNELS 3 Xrotation Yrotation Zrotation
          End Site
          {
            OFFSET 0.198873 2.218955 -2.234250
          }
        }
      }
      JOINT LeftShoulder
      {
        OFFSET 17.248308 -1.208605 -0.261267
        CHANNELS 3 Xrotation Yrotation Zrotation
        JOINT LeftArm
        {
          OFFSET 7.635523 -21.435821 1.774202
          CHANNELS 3 Xrotation Yrotation Zrotation
          JOINT LeftForeArm
          {
            OFFSET 7.643843 -21.327462 -9.147581
            CHANNELS 3 Xrotation Yrotation Zrotation
            JOINT LeftHand
            {
              OFFSET 0.473402 -5.275506 -2.178749
              CHANNELS 3 Xrotation Yrotation Zrotation
              End Site
              {
                OFFSET 0.142021 -1.582652 -0.653625
              }
            }
          }
        }
      }
      JOINT RightShoulder
      {
        OFFSET -17.248308 1.208605 0.261267
        CHANNELS 3 Xrotation Yrotation Zrotation
        JOINT RightArm
        {
          OFFSET -12.133127 -21.363330 5.693170
          CHANNELS 3 Xrotation Yrotation Zrotation
          JOINT RightForeArm
          {
            OFFSET -7.740244 -22.047532 -5.230031
            CHANNELS 3 Xrotation Yrotation Zrotation
            JOINT RightHand
            {
              OFFSET -0.480044 -5.557554 -1.525311
              CHANNELS 3 Xrotation Yrotation Zrotation
              End Site
              {
                OFFSET -0.144013 -1.667266 -0.457593
              }
            }
          }
        }
      }
    }
  }
  JOINT LeftUpLeg
  {
    OFFSET 11.699587 -0.675443 -0.599665
    CHANNELS 3 Xrotation Yrotation Zrotation
    JOINT LeftLeg
    {
      OFFSET -6.527727 -38.483662 1.737457
      CHANNELS 3 Xrotation Yrotation Zrotation
      JOINT LeftFoot
      {
        OFFSET 3.065902 -35.809878 12.679608
        CHANNELS 3 Xrotation Yrotation Zrotation
        End Site
        {
          OFFSET 0.919771 -10.742963 3.803882
        }
      }
    }
  }
  JOINT RightUpLeg
  {
    OFFSET -11.699587 0.675443 0.599665
    CHANNELS 3 Xrotation Yrotation Zrotation
    JOINT RightLeg
    {
      OFFSET -1.173808 -37.981520 -1.210152
      CHANNELS 3 Xrotation Yrotation Zrotation
      JOINT RightFoot
      {
        OFFSET -7.846448 -39.021816 7.691272
        CHANNELS 3 Xrotation Yrotation Zrotation
        End Site
        {
          OFFSET -2.353934 -11.706545 2.307382
        }
      }
    }
  }
}
MOTION
Frames: 15
Frame Time: 0.083333
-3.569313 60.000000 -11.555628 -3.192085 -0.431179 -1.600441 -3.192085 -0.431179 -1.600441 -1.716235 1.732166 3.310185 -1.788531 2.831820 2.366305 5.000000 0.000000 0.000000 6.165846 2.642407 21.899379 0.735350 0.676189 -1.380204 -98.289027 13.385677 33.821473 0.000000 0.000000 0.000000 13.872593 -12.581044 -56.727975 26.687413 0.722595 -5.606929 -106.647515 -7.819722 -17.857962 0.000000 0.000000 0.000000 -0.993959 0.296323 1.790252 2.157439 -0.919015 -3.362815 0.000000 0.000000 0.000000 8.467101 0.760725 -9.620708 3.068591 -0.101369 3.023568 0.000000 0.000000 0.000000
-3.336961 60.000000 -10.516918 -0.785184 -0.345056 -1.073131 -0.785184 -0.345056 -1.073131 -1.047113 1.532049 3.129334 -1.206428 2.641953 2.328830 5.000000 0.000000 0.000000 3.844617 2.272122 21.440631 -1.550374 0.345351 -1.086647 -97.997202 13.424512 34.048706 0.000000 0.000000 0.000000 19.628490 -12.486444 -54.885972 27.549133 -0.683695 -2.561566 -99.677982 -9.294498 -22.061018 0.000000 0.000000 0.000000 -4.663437 1.084266 3.302875 4.691189 -0.836606 -3.997880 0.000000 0.000000 0.000000 6.380390 0.631897 -9.364599 3.589380 -0.319187 2.407036 0.000000 0.000000 0.000000
-3.174440 60.000000 -9.686736 2.111725 -0.440193 -0.931339 2.111725 -0.440193 -0.931339 -0.428005 1.435749 3.133058 -0.622264 2.626401 2.445493 5.000000 0.000000 0.000000 2.404672 1.963205 20.134802 -2.357295 0.176879 -0.829868 -97.365373 13.506730 34.542456 0.000000 0.000000 0.000000 18.686159 -11.979723 -49.263572 19.852388 -1.174231 -0.651111 -84.376698 -10.005380 -27.567598 0.000000 0.000000 0.000000 -4.911324 1.215894 4.259050 3.952528 -0.523195 -2.712240 0.000000 0.000000 0.000000 3.252860 0.437860 -8.803443 5.233145 -0.720133 2.173598 0.000000 0.000000 0.000000
-2.996210 60.000000 -8.809339 4.372211 -0.551233 -0.920437 4.372211 -0.551233 -0.920437 -0.466118 1.438239 3.125446 -0.755843 2.646312 2.434058 5.000000 0.000000 0.000000 0.110810 1.388912 17.393226 -5.144065 -0.161058 -0.534590 -96.420240 13.503614 35.075655 0.000000 0.000000 0.000000 11.632121 -10.095644 -36.994846 11.302730 -0.614340 -0.728107 -77.896019 -7.100889 -24.716575 0.000000 0.000000 0.000000 -3.816251 1.065054 5.199327 4.019057 -0.089234 -1.366511 0.000000 0.000000 0.000000 1.180547 0.318334 -8.377451 5.713286 -0.766776 2.512787 0.000000 0.000000 0.000000
-2.814467 60.000000 -8.096789 6.182053 -0.622642 -0.854027 6.182053 -0.622642 -0.854027 -0.389633 1.438584 3.151994 -0.849630 2.555864 2.329401 5.000000 0.000000 0.000000 -0.257730 1.015779 13.491407 -5.483635 -0.284588 -0.273157 -95.562333 13.383456 35.365841 0.000000 0.000000 0.000000 5.577338 -6.726697 -20.631818 3.815643 0.262718 -2.109656 -72.949025 -4.830986 -21.937008 0.000000 0.000000 0.000000 -2.890076 0.926485 5.847640 4.734851 0.208013 -0.657124 0.000000 0.000000 0.000000 2.103773 0.369185 -8.499885 3.926422 -0.241110 3.223258 0.000000 0.000000 0.000000
-2.685215 60.000000 -7.476388 6.373826 -0.564434 -0.626300 6.373826 -0.564434 -0.626300 -0.617419 1.491059 3.187327 -1.171165 2.399575 2.114244 5.000000 0.000000 0.000000 -0.389022 0.821139 11.432194 -5.558208 -0.289517 -0.272763 -94.809773 13.156389 35.410526 0.000000 0.000000 0.000000 2.729141 -4.143071 -11.881576 0.761754 0.763481 -3.480379 -70.889235 -4.723123 -22.422962 0.000000 0.000000 0.000000 -5.404802 1.600748 6.945045 7.409708 0.282952 -1.298236 0.000000 0.000000 0.000000 1.439168 0.350319 -8.373200 2.134562 0.292706 3.986180 0.000000 0.000000 0.000000
-2.739759 60.000000 -7.035746 5.772854 -0.458531 -0.377076 5.772854 -0.458531 -0.377076 -0.951354 1.572861 3.247506 -1.474481 2.302175 1.962653 5.000000 0.000000 0.000000 -0.898422 0.702189 11.380349 -5.112474 -0.200278 -0.421965 -94.417835 12.938207 35.247085 0.000000 0.000000 0.000000 1.167346 -2.679744 -8.653670 1.762768 0.830750 -3.916563 -70.943420 -3.752629 -19.968097 0.000000 0.000000 0.000000 -6.871240 1.978202 7.228764 8.773177 0.285832 -1.778965 0.000000 0.000000 0.000000 -2.507338 0.152155 -7.315558 4.535854 -0.331601 3.682664 0.000000 0.000000 0.000000
-2.963527 60.000000 -6.617613 4.158901 -0.372838 -0.372912 4.158901 -0.372838 -0.372912 -1.535772 1.671623 3.250711 -1.998884 2.259111 1.821376 5.000000 0.000000 0.000000 -2.992245 0.426521 13.473588 -4.329683 0.014569 -0.821652 -93.490376 12.194286 34.430597 0.000000 0.000000 0.000000 -0.962874 -0.551252 -4.078860 2.484877 0.907479 -4.394858 -70.861163 -3.845436 -20.231283 0.000000 0.000000 0.000000 -4.233291 1.244651 6.217479 5.753671 0.350873 -0.460983 0.000000 0.000000 0.000000 -2.290255 0.149745 -6.951758 4.297866 -0.189551 4.235233 0.000000 0.000000 0.000000
-3.100779 60.000000 -5.753372 0.514944 -0.323922 -0.807509 0.514944 -0.323922 -0.807509 -2.912391 1.882939 3.213735 -3.194386 2.257230 1.593735 5.000000 0.000000 0.000000 -5.753025 0.364524 18.351858 -3.495120 0.345878 -1.426899 -91.681096 11.279200 33.784527 0.000000 0.000000 0.000000 -1.007024 -0.000183 -2.081122 -2.145854 1.123426 -4.795484 -70.757298 -3.795989 -20.142461 0.000000 0.000000 0.000000 -4.522343 1.399575 7.140095 8.501870 0.523302 -0.743554 0.000000 0.000000 0.000000 2.043969 0.266542 -6.729111 4.516781 -0.082491 5.237322 0.000000 0.000000 0.000000
-2.993356 60.000000 -4.301647 -3.408759 -0.371869 -1.474956 -3.408759 -0.371869 -1.474956 -3.748753 1.927670 3.043453 -3.856517 1.938493 1.216217 5.000000 0.000000 0.000000 -4.804356 1.539473 27.017776 0.306134 1.169137 -2.496790 -90.968542 11.402990 34.355631 0.000000 0.000000 0.000000 0.247401 -0.658878 -1.987075 -2.130459 1.139956 -4.886386 -71.421081 -4.330729 -21.220871 0.000000 0.000000 0.000000 -5.782313 1.808269 8.336475 11.590799 0.665223 -1.237572 0.000000 0.000000 0.000000 5.291452 0.332940 -6.385482 3.978668 0.108833 5.580195 0.000000 0.000000 0.000000
-2.742599 60.000000 -1.894065 -4.401147 -0.797976 -2.651546 -4.401147 -0.797976 -2.651546 -3.693902 1.538904 2.403126 -3.677931 1.068269 0.562258 5.000000 0.000000 0.000000 -2.796962 2.502319 36.098848 2.149209 2.029038 -3.788986 -94.952365 13.710985 36.081651 0.000000 0.000000 0.000000 0.536950 -0.837172 -2.072408 -0.630898 1.042425 -4.582467 -73.312856 -5.783107 -23.937037 0.000000 0.000000 0.000000 -5.406316 1.729396 8.413976 10.332935 0.827914 -0.230213 0.000000 0.000000 0.000000 7.506240 0.371940 -6.187979 1.408540 0.759558 5.615334 0.000000 0.000000 0.000000
-2.599815 60.000000 0.547329 -5.258832 -1.396669 -4.204682 -5.258832 -1.396669 -4.204682 -4.265256 0.929657 1.232905 -4.025237 0.153547 -0.194587 5.000000 0.000000 0.000000 1.992199 3.287496 45.126212 4.909979 2.822625 -4.650312 -102.616766 16.632780 36.745352 0.000000 0.000000 0.000000 0.834365 -1.278005 -3.165901 0.852591 0.945020 -4.307221 -77.796160 -7.376834 -25.420033 0.000000 0.000000 0.000000 -3.481279 1.177911 7.345327 6.143976 0.960047 1.417228 0.000000 0.000000 0.000000 9.046889 0.420161 -6.285288 -1.376525 1.400275 5.328341 0.000000 0.000000 0.000000
-2.450548 60.000000 1.959072 -5.582230 -1.870541 -5.370966 -5.582230 -1.870541 -5.370966 -4.621427 0.377416 0.253730 -4.511219 -0.406888 -0.666484 5.000000 0.000000 0.000000 4.541546 3.334447 51.598303 5.044319 2.838775 -4.661360 -108.757696 15.171481 31.309125 0.000000 0.000000 0.000000 0.380789 -1.720976 -5.954033 0.233946 0.866935 -3.866327 -81.487625 -10.129293 -29.239182 0.000000 0.000000 0.000000 -0.893752 0.474083 5.766938 1.493875 1.011894 2.568789 0.000000 0.000000 0.000000 11.158518 0.493016 -6.490994 -5.690735 2.318919 4.649117 0.000000 0.000000 0.000000
-2.278582 60.000000 1.698671 -5.703290 -2.388544 -6.640096 -5.703290 -2.388544 -6.640096 -4.639680 -0.063656 -0.481492 -4.558214 -0.727717 -0.915250 5.000000 0.000000 0.000000 10.740874 2.602489 55.318682 9.612903 2.912140 -3.845893 -110.624477 11.562507 25.539233 0.000000 0.000000 0.000000 1.041997 -2.865761 -9.575114 -0.810448 0.789672 -3.347058 -86.042343 -12.382668 -31.102481 0.000000 0.000000 0.000000 1.943865 -0.198255 4.555607 -0.925851 0.943084 2.779924 0.000000 0.000000 0.000000 13.365195 0.495211 -6.055682 -8.957364 2.882395 3.699363 0.000000 0.000000 0.000000
-2.203215 60.000000 1.171288 -4.998396 -2.619172 -7.209794 -4.998396 -2.619172 -7.209794 -4.312929 -0.364778 -0.970433 -4.259339 -0.897589 -1.035105 5.000000 0.000000 0.000000 19.025948 1.377630 56.143742 17.953453 2.918586 -2.302790 -112.028777 8.299749 20.566768 0.000000 0.000000 0.000000 3.396652 -4.845176 -14.142760 -0.901218 0.586685 -2.369960 -91.641593 -13.941048 -30.982318 0.000000 0.000000 0.000000 5.976577 -1.025758 4.176747 0.298640 0.821648 2.236106 0.000000 0.000000 0.000000 12.822412 0.382622 -5.186753 -10.408604 3.063033 3.153018 0.000000 0.000000 0.000000
